<svg width="24" height="24" viewBox="0 0 24 24" fill="none" xmlns="http://www.w3.org/2000/svg">
<path d="M7.19985 10.2002C7.19985 10.4709 7.22912 10.6904 7.28034 10.8514C7.33887 11.0124 7.41204 11.188 7.51448 11.3782C7.55106 11.4367 7.5657 11.4953 7.5657 11.5465C7.5657 11.6197 7.5218 11.6928 7.42668 11.766L6.9657 12.0733C6.89985 12.1172 6.834 12.1392 6.77546 12.1392C6.70229 12.1392 6.62912 12.1026 6.55595 12.0367C6.45352 11.927 6.36571 11.8099 6.29254 11.6928C6.21937 11.5684 6.1462 11.4294 6.06572 11.2611C5.49499 11.9343 4.77793 12.2709 3.91452 12.2709C3.2999 12.2709 2.80966 12.0953 2.45112 11.7441C2.09259 11.3928 1.90967 10.9246 1.90967 10.3392C1.90967 9.71725 2.12918 9.21238 2.57551 8.8319C3.02185 8.45141 3.61453 8.26117 4.36818 8.26117C4.61695 8.26117 4.87305 8.28312 5.14378 8.31971C5.4145 8.35629 5.69255 8.41483 5.98523 8.48068V7.94654C5.98523 7.39045 5.86816 7.00265 5.64133 6.77582C5.40719 6.549 5.01207 6.43924 4.44866 6.43924C4.19257 6.43924 3.92916 6.46851 3.65843 6.53436C3.3877 6.60021 3.12429 6.6807 2.86819 6.78314C2.75112 6.83436 2.66332 6.86363 2.6121 6.87826C2.56088 6.89289 2.52429 6.90021 2.49503 6.90021C2.39259 6.90021 2.34137 6.82704 2.34137 6.67338V6.31485C2.34137 6.19778 2.356 6.10998 2.39259 6.05876C2.42917 6.00754 2.49503 5.95632 2.59746 5.9051C2.85356 5.7734 3.16087 5.66364 3.5194 5.57584C3.87794 5.48072 4.25842 5.43681 4.66085 5.43681C5.53158 5.43681 6.16815 5.63437 6.57791 6.02949C6.98034 6.42461 7.18521 7.0246 7.18521 7.82947V10.2002H7.19985ZM4.22915 11.3124C4.47061 11.3124 4.71939 11.2685 4.9828 11.1806C5.24621 11.0928 5.48036 10.9319 5.67792 10.7124C5.79499 10.5733 5.88279 10.4197 5.92669 10.2441C5.9706 10.0685 5.99986 9.85627 5.99986 9.6075V9.30018C5.78767 9.24896 5.56084 9.20506 5.3267 9.17579C5.09256 9.14653 4.86573 9.13189 4.6389 9.13189C4.14867 9.13189 3.79013 9.22701 3.54867 9.42457C3.30721 9.62213 3.19014 9.90018 3.19014 10.266C3.19014 10.6099 3.27794 10.866 3.46087 11.0416C3.63648 11.2246 3.89257 11.3124 4.22915 11.3124ZM10.1047 12.1026C9.97299 12.1026 9.88518 12.0806 9.82665 12.0294C9.76811 11.9855 9.71689 11.8831 9.67299 11.7441L7.9535 6.08803C7.9096 5.94169 7.88765 5.84657 7.88765 5.79535C7.88765 5.67827 7.94618 5.61242 8.06325 5.61242H8.78032C8.91934 5.61242 9.01446 5.63437 9.06568 5.68559C9.12422 5.72949 9.16812 5.83193 9.21202 5.97095L10.4413 10.8148L11.5827 5.97095C11.6193 5.82461 11.6632 5.72949 11.7217 5.68559C11.7803 5.64169 11.8827 5.61242 12.0144 5.61242H12.5998C12.7388 5.61242 12.8339 5.63437 12.8925 5.68559C12.951 5.72949 13.0022 5.83193 13.0315 5.97095L14.1876 10.8733L15.4534 5.97095C15.4973 5.82461 15.5485 5.72949 15.5997 5.68559C15.6583 5.64169 15.7534 5.61242 15.8851 5.61242H16.5656C16.6827 5.61242 16.7485 5.67096 16.7485 5.79535C16.7485 5.83193 16.7412 5.86852 16.7339 5.91242C16.7266 5.95632 16.7119 6.01486 16.6827 6.09534L14.9193 11.7514C14.8754 11.8977 14.8241 11.9928 14.7656 12.0367C14.7071 12.0806 14.612 12.1099 14.4876 12.1099H13.8583C13.7193 12.1099 13.6242 12.088 13.5656 12.0367C13.5071 11.9855 13.4559 11.8904 13.4266 11.7441L12.2925 7.0246L11.1657 11.7367C11.1291 11.8831 11.0852 11.9782 11.0266 12.0294C10.9681 12.0806 10.8657 12.1026 10.734 12.1026H10.1047ZM19.507 12.3001C19.1265 12.3001 18.7461 12.2562 18.3802 12.1684C18.0144 12.0806 17.729 11.9855 17.5387 11.8758C17.4217 11.8099 17.3412 11.7367 17.3119 11.6709C17.2827 11.605 17.268 11.5319 17.268 11.466V11.0928C17.268 10.9392 17.3266 10.866 17.4363 10.866C17.4802 10.866 17.5241 10.8733 17.568 10.888C17.6119 10.9026 17.6778 10.9319 17.7509 10.9611C17.9997 11.0709 18.2704 11.1587 18.5558 11.2172C18.8485 11.2758 19.1339 11.305 19.4265 11.305C19.8875 11.305 20.246 11.2246 20.4948 11.0636C20.7436 10.9026 20.8753 10.6685 20.8753 10.3685C20.8753 10.1636 20.8094 9.9953 20.6777 9.85627C20.546 9.71725 20.2973 9.59286 19.9387 9.47579L18.8778 9.14653C18.3436 8.97824 17.9485 8.72946 17.707 8.40019C17.4656 8.07825 17.3412 7.71971 17.3412 7.33923C17.3412 7.03192 17.407 6.76119 17.5387 6.52705C17.6705 6.2929 17.8461 6.08803 18.0656 5.92705C18.2851 5.75876 18.5339 5.63437 18.8265 5.54657C19.1192 5.45877 19.4265 5.42218 19.7485 5.42218C19.9095 5.42218 20.0777 5.4295 20.2387 5.45145C20.407 5.4734 20.5607 5.50267 20.7143 5.53193C20.8607 5.56852 20.9997 5.6051 21.1314 5.64901C21.2631 5.69291 21.3655 5.73681 21.4387 5.78071C21.5411 5.83925 21.6143 5.89778 21.6582 5.96364C21.7021 6.02217 21.7241 6.10266 21.7241 6.2051V6.549C21.7241 6.70265 21.6655 6.78314 21.5558 6.78314C21.4972 6.78314 21.4021 6.75387 21.2777 6.69534C20.8607 6.50509 20.3924 6.40997 19.8729 6.40997C19.4558 6.40997 19.1265 6.47583 18.8997 6.61485C18.6729 6.75387 18.5558 6.96606 18.5558 7.26606C18.5558 7.47094 18.629 7.64654 18.7753 7.78557C18.9217 7.92459 19.1924 8.06361 19.5802 8.188L20.6192 8.51727C21.146 8.68556 21.5265 8.9197 21.7533 9.2197C21.9802 9.51969 22.0899 9.86359 22.0899 10.2441C22.0899 10.5587 22.0241 10.8441 21.8997 11.0928C21.768 11.3416 21.5924 11.5611 21.3655 11.7367C21.1387 11.9197 20.868 12.0514 20.5533 12.1465C20.2241 12.2489 19.8802 12.3001 19.507 12.3001Z" fill="#252F3E"/>
<path fill-rule="evenodd" clip-rule="evenodd" d="M20.8899 15.8563C18.4826 17.6344 14.9851 18.5783 11.9778 18.5783C7.76324 18.5783 3.96572 17.0198 1.09746 14.4295C0.870637 14.2247 1.07551 13.9466 1.34624 14.1076C4.44864 15.9076 8.27543 16.9978 12.2339 16.9978C14.9046 16.9978 17.8387 16.4417 20.5387 15.3003C20.9411 15.1173 21.285 15.5637 20.8899 15.8563Z" fill="#FF9900"/>
<path fill-rule="evenodd" clip-rule="evenodd" d="M21.8925 14.7148C21.5852 14.3197 19.8584 14.5246 19.0755 14.6197C18.8413 14.649 18.8048 14.4441 19.017 14.2904C20.3925 13.3246 22.6535 13.6026 22.9169 13.9246C23.1803 14.2539 22.8437 16.5148 21.5559 17.5977C21.3584 17.766 21.1681 17.6782 21.2559 17.4587C21.5486 16.7343 22.1998 15.1026 21.8925 14.7148Z" fill="#FF9900"/>
</svg>
