<svg width="24" height="24" viewBox="0 0 24 24" fill="none" xmlns="http://www.w3.org/2000/svg">
<mask id="mask0_66_427" style="mask-type:luminance" maskUnits="userSpaceOnUse" x="3" y="5" width="18" height="19">
<path d="M3.98438 5.13617H20.0137V23.3117H3.98438V5.13617Z" fill="white"/>
</mask>
<g mask="url(#mask0_66_427)">
<path d="M11.9908 23.3108L5.44975 21.4942L3.99219 5.13694L20.009 5.13669L18.5504 21.4914L11.9911 23.3106L11.9908 23.3108Z" fill="#0277BD"/>
</g>
<path d="M17.3004 20.4503L18.5474 6.47446L12 6.47427V21.92L17.3004 20.4501V20.4503Z" fill="#039BE5"/>
<path d="M7.33301 12.541L7.5127 14.5467H11.9999V12.541H7.33301Z" fill="#EBEBEB"/>
<path d="M6.97266 8.48013L7.15491 10.4865H12.0008V8.48013H6.97266Z" fill="#EBEBEB"/>
<path d="M12.0002 17.751L11.9915 17.7535L9.75829 17.1498L9.61548 15.5499H7.60254L7.88348 18.7001L11.9909 19.8408L12.0002 19.8383V17.751Z" fill="#EBEBEB"/>
<path d="M16.6544 12.5412L17.016 8.48013H11.9932V10.4865H14.8185L14.6365 12.5412H11.9932V14.5469H14.4625L14.2296 17.1488L11.9932 17.753V19.8398L16.1038 18.7003L16.1339 18.3611L16.6054 13.0795L16.6544 12.5412Z" fill="white"/>
<path d="M7.76172 0.69165H10.1903V1.70778H8.77728V2.7239H10.1903V3.73996H7.76172V0.69165Z" fill="white"/>
<path d="M10.6758 0.69165H13.1044V1.57528H11.6917V1.75196H13.1044V3.78415H10.6758V2.85646H12.0892V2.67965H10.6758V0.69165Z" fill="white"/>
<path d="M13.5898 0.69165H16.0185V1.57528H14.6051V1.75196H16.0185V3.78415H13.5898V2.85646H15.0025V2.67965H13.5898V0.69165Z" fill="white"/>
</svg>
