<svg width="24" height="24" viewBox="0 0 24 24" fill="none" xmlns="http://www.w3.org/2000/svg">
<g clip-path="url(#clip0_66_178)">
<path d="M14.0093 11.9828C14.0093 12.0157 14.0085 12.0486 14.0068 12.0814C14.0052 12.1143 14.0028 12.1471 13.9996 12.1799C13.9964 12.2126 13.9923 12.2453 13.9875 12.2778C13.9827 12.3104 13.9771 12.3428 13.9706 12.375C13.9642 12.4074 13.957 12.4394 13.949 12.4714C13.941 12.5033 13.9323 12.535 13.9227 12.5665C13.9131 12.598 13.9028 12.6292 13.8918 12.6602C13.8806 12.6912 13.8688 12.7219 13.8563 12.7522C13.8436 12.7827 13.8303 12.8127 13.8163 12.8425C13.8022 12.8722 13.7874 12.9016 13.7719 12.9306C13.7564 12.9597 13.7402 12.9883 13.7233 13.0165C13.7063 13.0447 13.6888 13.0725 13.6705 13.0999C13.6522 13.1272 13.6333 13.1541 13.6136 13.1805C13.5941 13.207 13.5738 13.2329 13.553 13.2584C13.5321 13.2838 13.5106 13.3087 13.4885 13.3331C13.4664 13.3575 13.4438 13.3813 13.4205 13.4045C13.3972 13.4279 13.3734 13.4505 13.349 13.4726C13.3246 13.4947 13.2997 13.5162 13.2743 13.5371C13.2489 13.558 13.223 13.5782 13.1965 13.5978C13.1701 13.6174 13.1432 13.6364 13.1158 13.6546C13.0885 13.6729 13.0607 13.6905 13.0325 13.7074C13.0043 13.7244 12.9756 13.7405 12.9466 13.756C12.9176 13.7716 12.8883 13.7864 12.8585 13.8004C12.8288 13.8145 12.7987 13.8279 12.7683 13.8404C12.7379 13.853 12.7072 13.8649 12.6763 13.876C12.6453 13.887 12.614 13.8974 12.5826 13.9069C12.5511 13.9165 12.5194 13.9252 12.4875 13.9332C12.4555 13.9412 12.4235 13.9484 12.3912 13.9549C12.3589 13.9613 12.3265 13.9669 12.294 13.9717C12.2615 13.9765 12.2288 13.9806 12.196 13.9838C12.1633 13.987 12.1305 13.9895 12.0976 13.991C12.0648 13.9927 12.0319 13.9935 11.999 13.9935C11.9661 13.9935 11.9332 13.9927 11.9004 13.991C11.8675 13.9895 11.8347 13.987 11.802 13.9838C11.7692 13.9806 11.7366 13.9765 11.704 13.9717C11.6715 13.9669 11.6391 13.9613 11.6068 13.9549C11.5746 13.9484 11.5425 13.9412 11.5106 13.9332C11.4786 13.9252 11.447 13.9165 11.4155 13.9069C11.384 13.8974 11.3528 13.887 11.3218 13.876C11.2908 13.8649 11.2601 13.853 11.2297 13.8404C11.1993 13.8279 11.1693 13.8145 11.1395 13.8004C11.1098 13.7864 11.0804 13.7716 11.0514 13.756C11.0224 13.7405 10.9938 13.7244 10.9655 13.7074C10.9373 13.6905 10.9095 13.6729 10.8821 13.6546C10.8548 13.6364 10.8279 13.6174 10.8015 13.5978C10.7751 13.5782 10.7491 13.558 10.7237 13.5371C10.6983 13.5162 10.6734 13.4947 10.649 13.4726C10.6246 13.4505 10.6008 13.4279 10.5775 13.4045C10.5543 13.3813 10.5316 13.3575 10.5095 13.3331C10.4874 13.3087 10.466 13.2838 10.4451 13.2584C10.4242 13.2329 10.404 13.207 10.3843 13.1805C10.3648 13.1541 10.3458 13.1272 10.3275 13.0999C10.3093 13.0725 10.2916 13.0447 10.2748 13.0165C10.2578 12.9883 10.2416 12.9597 10.2261 12.9306C10.2106 12.9016 10.1958 12.8722 10.1818 12.8425C10.1677 12.8127 10.1543 12.7827 10.1418 12.7522C10.1292 12.7219 10.1173 12.6912 10.1063 12.6602C10.0951 12.6292 10.0848 12.598 10.0753 12.5665C10.0658 12.535 10.057 12.5033 10.049 12.4714C10.041 12.4394 10.0338 12.4074 10.0274 12.375C10.021 12.3428 10.0153 12.3104 10.0105 12.2778C10.0057 12.2453 10.0016 12.2126 9.99846 12.1799C9.99521 12.1471 9.99277 12.1143 9.99114 12.0814C9.98958 12.0486 9.98877 12.0157 9.98877 11.9828C9.98877 11.9499 9.98958 11.917 9.99114 11.8841C9.99277 11.8512 9.99521 11.8185 9.99846 11.7857C10.0016 11.753 10.0057 11.7203 10.0105 11.6877C10.0153 11.6552 10.021 11.6228 10.0274 11.5905C10.0338 11.5582 10.041 11.5262 10.049 11.4942C10.057 11.4623 10.0658 11.4306 10.0753 11.3991C10.0848 11.3676 10.0951 11.3364 10.1063 11.3054C10.1173 11.2744 10.1292 11.2437 10.1418 11.2133C10.1543 11.1829 10.1677 11.1529 10.1818 11.1231C10.1958 11.0934 10.2106 11.064 10.2261 11.0349C10.2416 11.0059 10.2578 10.9773 10.2748 10.949C10.2916 10.9209 10.3093 10.893 10.3275 10.8657C10.3458 10.8384 10.3648 10.8114 10.3843 10.785C10.404 10.7586 10.4242 10.7327 10.4451 10.7072C10.466 10.6818 10.4874 10.6569 10.5095 10.6325C10.5316 10.6081 10.5543 10.5843 10.5775 10.561C10.6008 10.5377 10.6246 10.515 10.649 10.493C10.6734 10.4709 10.6983 10.4494 10.7237 10.4285C10.7491 10.4076 10.7751 10.3874 10.8015 10.3678C10.8279 10.3482 10.8548 10.3292 10.8821 10.3109C10.9095 10.2927 10.9373 10.275 10.9655 10.2582C10.9938 10.2412 11.0224 10.225 11.0514 10.2095C11.0804 10.194 11.1098 10.1792 11.1395 10.1651C11.1693 10.151 11.1993 10.1377 11.2297 10.1251C11.2601 10.1125 11.2908 10.1007 11.3218 10.0896C11.3528 10.0785 11.384 10.0682 11.4155 10.0587C11.447 10.0491 11.4786 10.0404 11.5106 10.0324C11.5425 10.0244 11.5746 10.0171 11.6068 10.0107C11.6391 10.0043 11.6715 9.99867 11.704 9.99386C11.7366 9.98904 11.7692 9.98498 11.802 9.98173C11.8347 9.97854 11.8675 9.97611 11.9004 9.97448C11.9332 9.97286 11.9661 9.97211 11.999 9.97211C12.0319 9.97211 12.0648 9.97286 12.0976 9.97448C12.1305 9.97611 12.1633 9.97854 12.196 9.98173C12.2288 9.98498 12.2615 9.98904 12.294 9.99386C12.3265 9.99867 12.3589 10.0043 12.3912 10.0107C12.4235 10.0171 12.4555 10.0244 12.4875 10.0324C12.5194 10.0404 12.5511 10.0491 12.5826 10.0587C12.614 10.0682 12.6453 10.0785 12.6763 10.0896C12.7072 10.1007 12.7379 10.1125 12.7683 10.1251C12.7987 10.1377 12.8288 10.151 12.8585 10.1651C12.8883 10.1792 12.9176 10.194 12.9466 10.2095C12.9756 10.225 13.0043 10.2412 13.0325 10.2582C13.0607 10.275 13.0885 10.2927 13.1158 10.3109C13.1432 10.3292 13.1701 10.3482 13.1965 10.3678C13.223 10.3874 13.2489 10.4076 13.2743 10.4285C13.2997 10.4494 13.3246 10.4709 13.349 10.4929C13.3734 10.515 13.3972 10.5377 13.4205 10.561C13.4438 10.5843 13.4664 10.6081 13.4885 10.6325C13.5106 10.6569 13.5321 10.6818 13.553 10.7072C13.5738 10.7327 13.5941 10.7586 13.6136 10.785C13.6333 10.8114 13.6522 10.8384 13.6705 10.8657C13.6888 10.893 13.7063 10.9209 13.7233 10.9491C13.7402 10.9773 13.7564 11.0059 13.7719 11.0349C13.7874 11.064 13.8022 11.0934 13.8163 11.1231C13.8303 11.1529 13.8436 11.1829 13.8563 11.2133C13.8688 11.2437 13.8806 11.2744 13.8918 11.3054C13.9028 11.3364 13.9131 11.3676 13.9227 11.3991C13.9323 11.4306 13.941 11.4623 13.949 11.4942C13.957 11.5262 13.9642 11.5582 13.9706 11.5905C13.9771 11.6228 13.9827 11.6552 13.9875 11.6877C13.9923 11.7203 13.9964 11.753 13.9996 11.7857C14.0028 11.8185 14.0052 11.8512 14.0068 11.8841C14.0085 11.917 14.0093 11.9499 14.0093 11.9828Z" fill="#00D8FF"/>
<path fill-rule="evenodd" clip-rule="evenodd" d="M11.9985 8.39447C9.31464 8.39447 6.80341 8.78498 4.97077 9.42403C3.88738 9.80184 3.05195 10.266 2.49756 10.7404C1.93191 11.2245 1.72314 11.6601 1.72314 11.9827C1.72314 12.3191 1.95087 12.7877 2.55673 13.3067C3.14849 13.8136 4.03565 14.3085 5.17603 14.6984C6.97437 15.313 9.40118 15.6109 11.9987 15.6109C14.5263 15.6109 16.9031 15.2946 18.6864 14.7035C19.8696 14.3114 20.7922 13.8184 21.4083 13.3111C22.0394 12.7915 22.274 12.3228 22.274 11.9827C22.274 11.6626 22.0574 11.2234 21.4687 10.7321C20.8938 10.2522 20.0333 9.78452 18.9329 9.4056C17.1059 8.77647 14.6553 8.39447 11.9985 8.39447ZM4.64151 8.47979C6.604 7.79546 9.23114 7.39447 11.9985 7.39447C14.7398 7.39447 17.3044 7.78722 19.2585 8.46009C20.436 8.86554 21.4147 9.38444 22.1094 9.96431C22.7904 10.5327 23.274 11.2262 23.274 11.9827C23.274 12.7643 22.7666 13.4881 22.044 14.0831C21.3065 14.6904 20.2639 15.2343 19.001 15.6528C17.0858 16.2875 14.5955 16.6109 11.9987 16.6109C9.34263 16.6109 6.79459 16.3083 4.85256 15.6446C3.62694 15.2256 2.61848 14.6763 1.90618 14.0661C1.20799 13.4681 0.723145 12.7468 0.723145 11.9827C0.723145 11.2374 1.18298 10.5492 1.84737 9.98066C2.52302 9.40247 3.47911 8.88516 4.64151 8.47979Z" fill="#00D8FF"/>
<path fill-rule="evenodd" clip-rule="evenodd" d="M15.1237 10.1986C13.7818 7.87429 12.188 5.89476 10.7182 4.62717C9.84932 3.87783 9.02963 3.38641 8.34157 3.14351C7.63953 2.89567 7.15792 2.93267 6.87856 3.09396C6.58724 3.26215 6.29525 3.69369 6.14873 4.47787C6.00562 5.2438 6.02061 6.25955 6.25314 7.44209C6.62003 9.30682 7.57542 11.5575 8.87419 13.807C10.138 15.9959 11.6004 17.8962 13.0038 19.145C13.935 19.9736 14.8233 20.5262 15.5707 20.8061C16.3362 21.0927 16.8594 21.0616 17.154 20.8915C17.4312 20.7315 17.7032 20.3243 17.8344 19.5688C17.9625 18.831 17.9373 17.852 17.7152 16.7095C17.3466 14.8127 16.4521 12.4995 15.1237 10.1986ZM11.3713 3.8699C12.9452 5.22731 14.6061 7.30198 15.9897 9.6986C17.3604 12.0726 18.3026 14.49 18.6969 16.5187C18.9345 17.7412 18.9744 18.8482 18.8197 19.7398C18.6679 20.6138 18.3091 21.3793 17.654 21.7576C16.9771 22.1484 16.0965 22.0708 15.22 21.7425C14.3252 21.4075 13.333 20.7765 12.3391 19.8921C10.8318 18.5508 9.30656 16.5559 8.00816 14.307C6.68012 12.0068 5.66813 9.6488 5.27194 7.63509C5.02202 6.36414 4.99348 5.21615 5.16574 4.29421C5.33458 3.39052 5.71683 2.60998 6.37856 2.22793C7.02396 1.85531 7.84987 1.90944 8.67446 2.20054C9.51302 2.49658 10.4391 3.06591 11.3713 3.8699Z" fill="#00D8FF"/>
<path fill-rule="evenodd" clip-rule="evenodd" d="M15.1237 13.8068C16.4657 11.4825 17.3831 9.11246 17.746 7.20583C17.9605 6.07868 17.9762 5.12309 17.8425 4.40576C17.7062 3.67386 17.4333 3.27527 17.154 3.11398C16.8626 2.94579 16.3429 2.90868 15.5905 3.17389C14.8557 3.43292 13.9835 3.95377 13.0756 4.74642C11.6442 5.99652 10.1728 7.94923 8.87402 10.1988C7.61023 12.3877 6.69577 14.6043 6.31596 16.4442C6.06394 17.6649 6.02957 18.7104 6.16088 19.4976C6.29537 20.3039 6.58394 20.7415 6.87852 20.9116C7.1557 21.0716 7.64439 21.1036 8.36424 20.8394C9.06721 20.5815 9.9025 20.0701 10.7809 19.3066C12.2392 18.0389 13.7953 16.1077 15.1237 13.8068ZM18.7283 7.3928C18.3397 9.43453 17.3734 11.9102 15.9898 14.3068C14.6191 16.6809 12.9967 18.7055 11.4369 20.0613C10.497 20.8783 9.55832 21.4664 8.70875 21.7782C7.87605 22.0838 7.03366 22.1558 6.37852 21.7776C5.70158 21.3868 5.32851 20.5854 5.17451 19.6621C5.01732 18.7198 5.0676 17.545 5.33662 16.242C5.74452 14.266 6.70959 11.9477 8.00799 9.69875C9.33603 7.39853 10.8721 5.34314 12.4179 3.99317C13.3936 3.14127 14.3735 2.54256 15.2581 2.23076C16.1251 1.92514 16.9922 1.86591 17.654 2.24796C18.2994 2.62058 18.6654 3.3629 18.8256 4.22257C18.9885 5.0968 18.9585 6.18344 18.7283 7.3928Z" fill="#00D8FF"/>
</g>
<defs>
<clipPath id="clip0_66_178">
<rect width="24" height="24" fill="white"/>
</clipPath>
</defs>
</svg>
