<svg width="24" height="24" viewBox="0 0 24 24" fill="none" xmlns="http://www.w3.org/2000/svg">
<circle cx="12.0002" cy="12" r="10.8" fill="#6DB33F"/>
<path fill-rule="evenodd" clip-rule="evenodd" d="M6.15841 17.9093C2.55847 15.3961 4.18865 8.87538 10.9132 8.67161C18.6566 8.43696 20.6263 3.57727 20.6263 3.57727C25.5141 19.637 17.2923 19.4967 10.6073 19.3827C9.4886 19.3636 8.41295 19.3453 7.44897 19.4037C15.3267 17.0765 18.7924 13.9697 19.6754 9.35085C17.0822 14.5283 13.9907 16.3211 6.15841 17.9093ZM5.54709 20.3547C6.07229 20.3547 6.49804 19.929 6.49804 19.4038C6.49804 18.8786 6.07229 18.4528 5.54709 18.4528C5.0219 18.4528 4.59615 18.8786 4.59615 19.4038C4.59615 19.929 5.0219 20.3547 5.54709 20.3547Z" fill="white"/>
</svg>
