<svg width="24" height="24" viewBox="0 0 24 24" fill="none" xmlns="http://www.w3.org/2000/svg">
<path d="M12 9V13M12 3C12 3 10 5.34 10 7C10 7.53043 10.2107 8.03914 10.5858 8.41421C10.9609 8.78929 11.4696 9 12 9C12.5304 9 13.0391 8.78929 13.4142 8.41421C13.7893 8.03914 14 7.53043 14 7C14 5.34 12 3 12 3Z" stroke="#19213D" stroke-width="2" stroke-linecap="round" stroke-linejoin="round"/>
<path d="M3 21H21M20 21H4V14C4 13.7348 4.10536 13.4804 4.29289 13.2929C4.48043 13.1054 4.73478 13 5 13H19C19.2652 13 19.5196 13.1054 19.7071 13.2929C19.8946 13.4804 20 13.7348 20 14V21Z" stroke="#19213D" stroke-width="2" stroke-linecap="round" stroke-linejoin="round"/>
</svg>
