<svg width="24" height="24" viewBox="0 0 24 24" fill="none" xmlns="http://www.w3.org/2000/svg">
<path d="M7.98067 11.1428H5.26709C5.62457 12.3777 6.29077 13.4826 7.28196 14.4576C8.84186 16.0175 10.7105 16.7974 12.9204 16.7974C13.3591 16.7974 13.7816 16.7649 14.204 16.6999C15.8614 16.4562 17.3076 15.7088 18.5425 14.4576C19.5337 13.4826 20.1999 12.3777 20.5574 11.1428H19.4524H17.8438H7.98067Z" fill="#2C2255"/>
<path d="M6.48576 7.45419H5.0721C5.02336 7.76292 4.99086 8.0879 4.97461 8.41288H6.6645H7.50945H19.7449H20.8661C20.8499 8.0879 20.8174 7.76292 20.7686 7.45419" fill="#2C2255"/>
<path d="M4.9585 9.30667C4.97475 9.63165 5.00724 9.95663 5.05599 10.2654H6.53465H7.65582H19.6151H20.72C20.7687 9.95663 20.8012 9.63165 20.8175 9.30667" fill="#2C2255"/>
<path d="M20.5413 6.56059C20.1838 5.32567 19.5013 4.20449 18.5264 3.22955C17.2752 1.99463 15.8453 1.24717 14.1879 1.00344C13.7654 0.938443 13.343 0.905945 12.9042 0.905945C10.7106 0.905945 8.842 1.6859 7.26585 3.22955C6.29091 4.22074 5.6247 5.32567 5.25098 6.56059" fill="#2C2255"/>
<path d="M4.48712 8.8517C4.48712 4.65946 7.63942 1.16593 11.7342 0.56472C11.6367 0.56472 11.5229 0.56472 11.4254 0.56472C6.82697 0.548471 3.10596 4.26948 3.10596 8.8517C3.10596 13.4339 6.84322 17.1549 11.4417 17.1549C11.5392 17.1549 11.6529 17.1549 11.7504 17.1549C7.63942 16.5375 4.48712 13.0602 4.48712 8.8517Z" fill="#F7941E"/>
<path d="M18.315 8.41288C18.2825 8.0879 18.2337 7.76292 18.1525 7.45419H7.65565C7.57441 7.76292 7.52566 8.0879 7.49316 8.41288H18.315Z" fill="url(#paint0_linear_66_187)"/>
<path d="M18.315 9.30667H7.49316C7.52566 9.63165 7.57441 9.95663 7.65565 10.2654H18.1362C18.2175 9.95663 18.2825 9.63165 18.315 9.30667Z" fill="url(#paint1_linear_66_187)"/>
<path d="M12.9039 14.2788C15.0813 14.2788 16.9499 12.9952 17.8273 11.1428H7.98047C8.84166 12.9952 10.7265 14.2788 12.9039 14.2788Z" fill="url(#paint2_linear_66_187)"/>
<path d="M6.69678 9.30667H7.49298H18.331H19.761H20.8496C20.8496 9.16043 20.8659 9.03044 20.8659 8.8842C20.8659 8.72171 20.8659 8.57547 20.8496 8.42923H19.7772H18.3473H7.49298H6.64804H4.95814C4.94189 8.57547 4.94189 8.73796 4.94189 8.8842C4.94189 9.03044 4.94189 9.17668 4.95814 9.30667H6.69678Z" fill="white"/>
<path d="M7.94785 6.56061H5.26676C5.18552 6.85309 5.12052 7.14557 5.07178 7.4543H6.45294H7.63911H18.1522H19.6471H20.7033C20.6545 7.14557 20.5733 6.85309 20.492 6.56061" fill="white"/>
<path d="M19.6634 10.2654H18.1684H7.67161H6.55043H5.07178C5.12052 10.5741 5.18552 10.8666 5.26676 11.159H7.99659H17.8597H19.4846H20.5408C20.622 10.8666 20.7033 10.5741 20.752 10.2654H19.6634Z" fill="white"/>
<path d="M11.2874 17.8461H10.7686V18.5023H11.2874V17.8461Z" fill="#F7941E"/>
<path d="M6.43459 20.5471V20.8014H4.04889C4.06923 21.1575 4.18114 21.4322 4.36935 21.6153C4.56265 21.8035 4.83225 21.8951 5.17307 21.8951C5.37145 21.8951 5.56475 21.8697 5.75296 21.8239C5.94117 21.773 6.1243 21.7018 6.30742 21.6051V22.0935C6.11921 22.1749 5.931 22.2308 5.73262 22.2715C5.53932 22.3122 5.34093 22.3326 5.13746 22.3326C4.63387 22.3326 4.2371 22.185 3.94206 21.8951C3.64703 21.6001 3.49951 21.2033 3.49951 20.7048C3.49951 20.1859 3.63686 19.779 3.91663 19.4738C4.1964 19.1686 4.57283 19.016 5.0459 19.016C5.47319 19.016 5.80892 19.1533 6.05308 19.428C6.31251 19.7078 6.43459 20.0791 6.43459 20.5471ZM5.91574 20.3945C5.91065 20.1096 5.83435 19.8858 5.67666 19.7129C5.52406 19.545 5.3155 19.4585 5.06116 19.4585C4.77121 19.4585 4.5423 19.5399 4.36427 19.7027C4.19132 19.8655 4.08958 20.0944 4.06415 20.3945H5.91574Z" fill="#2C2255"/>
<path d="M9.12555 19.2194V19.7026C8.97803 19.6212 8.83051 19.5602 8.68299 19.5195C8.53548 19.4788 8.38796 19.4584 8.23536 19.4584C7.89963 19.4584 7.6402 19.5653 7.45199 19.7789C7.26378 19.9925 7.17222 20.2927 7.17222 20.6742C7.17222 21.0608 7.26378 21.3609 7.45199 21.5745C7.6402 21.7882 7.89963 21.895 8.23536 21.895C8.38796 21.895 8.53548 21.8747 8.68299 21.834C8.83051 21.7933 8.97803 21.7322 9.12555 21.6508V22.1341C8.98312 22.2002 8.83051 22.2511 8.67791 22.2867C8.5253 22.3223 8.35744 22.3376 8.18449 22.3376C7.71142 22.3376 7.32991 22.19 7.05013 21.8899C6.77036 21.5898 6.62793 21.1879 6.62793 20.6793C6.62793 20.1655 6.77036 19.7586 7.05013 19.4635C7.33499 19.1685 7.72159 19.021 8.21501 19.021C8.3727 19.021 8.53039 19.0362 8.68299 19.0718C8.8356 19.1024 8.98312 19.1532 9.12555 19.2194Z" fill="#2C2255"/>
<path d="M10.1126 17.8715H9.59375V22.2563H10.1126V17.8715Z" fill="#2C2255"/>
<path d="M10.7686 19.0973H11.2874V22.2562H10.7686V19.0973Z" fill="#2C2255"/>
<path d="M12.437 21.7831V23.4567H11.9131V19.0973H12.437V19.5754C12.5438 19.3872 12.6863 19.2499 12.8491 19.1583C13.0169 19.0667 13.2153 19.021 13.4442 19.021C13.8257 19.021 14.1411 19.1736 14.3802 19.4788C14.6193 19.784 14.7413 20.1858 14.7413 20.6793C14.7413 21.1778 14.6193 21.5745 14.3802 21.8797C14.1411 22.185 13.8308 22.3376 13.4442 22.3376C13.2153 22.3376 13.0118 22.2918 12.8491 22.2002C12.6863 22.1087 12.5489 21.9713 12.437 21.7831ZM14.2021 20.6793C14.2021 20.2978 14.1258 19.9976 13.9682 19.784C13.8105 19.5703 13.5968 19.4584 13.3221 19.4584C13.0474 19.4584 12.8338 19.5653 12.6761 19.784C12.5184 20.0027 12.4421 20.2978 12.4421 20.6793C12.4421 21.0608 12.5184 21.3609 12.6761 21.5796C12.8338 21.7984 13.0474 21.9052 13.3221 21.9052C13.5968 21.9052 13.8105 21.7984 13.9682 21.5796C14.1258 21.3609 14.2021 21.0608 14.2021 20.6793Z" fill="#2C2255"/>
<path d="M17.1832 19.1888V19.6772C17.0357 19.6009 16.8831 19.5449 16.7254 19.5093C16.5677 19.4737 16.4049 19.4533 16.2371 19.4533C15.9776 19.4533 15.7843 19.494 15.6572 19.5703C15.53 19.6517 15.4639 19.7687 15.4639 19.9264C15.4639 20.0485 15.5097 20.1401 15.6012 20.2113C15.6928 20.2774 15.8759 20.3435 16.1557 20.4097L16.3337 20.4504C16.7 20.5317 16.9645 20.6386 17.1171 20.7861C17.2697 20.9285 17.3511 21.132 17.3511 21.3863C17.3511 21.6814 17.2341 21.9103 17.0052 22.0832C16.7712 22.2562 16.4558 22.3376 16.0489 22.3376C15.881 22.3376 15.703 22.3223 15.5198 22.2867C15.3367 22.2562 15.1434 22.2053 14.9399 22.1392V21.6051C15.1332 21.7068 15.3214 21.778 15.5046 21.8289C15.6928 21.8797 15.8759 21.9052 16.059 21.9052C16.3032 21.9052 16.4914 21.8645 16.6237 21.778C16.7559 21.6966 16.8221 21.5745 16.8221 21.4219C16.8221 21.2795 16.7763 21.1727 16.6796 21.0964C16.583 21.0201 16.3744 20.9489 16.0539 20.8776L15.8759 20.837C15.5554 20.7708 15.3215 20.664 15.179 20.5267C15.0366 20.3842 14.9654 20.196 14.9654 19.9518C14.9654 19.6568 15.0722 19.4279 15.2808 19.2651C15.4893 19.1024 15.7894 19.021 16.176 19.021C16.3693 19.021 16.5474 19.0362 16.7152 19.0617C16.8831 19.0922 17.0408 19.1329 17.1832 19.1888Z" fill="#2C2255"/>
<path d="M20.4439 20.5471V20.8014H18.0582C18.0785 21.1575 18.1904 21.4322 18.3786 21.6153C18.5719 21.8035 18.8415 21.8951 19.1823 21.8951C19.3807 21.8951 19.574 21.8697 19.7622 21.8239C19.9505 21.773 20.1336 21.7018 20.3167 21.6051V22.0935C20.1285 22.1749 19.9403 22.2308 19.7419 22.2715C19.5486 22.3122 19.3502 22.3326 19.1467 22.3326C18.6431 22.3326 18.2464 22.185 17.9513 21.8951C17.6563 21.6001 17.5088 21.2033 17.5088 20.7048C17.5088 20.1859 17.6461 19.779 17.9259 19.4738C18.2057 19.1686 18.5821 19.016 19.0552 19.016C19.4774 19.016 19.8182 19.1533 20.0624 19.428C20.3218 19.7078 20.4439 20.0791 20.4439 20.5471ZM19.925 20.3945C19.9199 20.1096 19.8436 19.8858 19.6859 19.7129C19.5333 19.545 19.3248 19.4585 19.0704 19.4585C18.7805 19.4585 18.5516 19.5399 18.3735 19.7027C18.2006 19.8655 18.0989 20.0944 18.0734 20.3945H19.925Z" fill="#2C2255"/>
<path d="M19.9447 18.1929V17.9796H20.0528C20.0615 17.9796 20.0709 17.9821 20.0811 17.9871C20.0914 17.9919 20.1 17.9994 20.1072 18.0097C20.1145 18.0197 20.1181 18.0324 20.1181 18.0478C20.1181 18.0634 20.1144 18.0767 20.1069 18.0877C20.0994 18.0985 20.0902 18.1067 20.0794 18.1123C20.0688 18.1179 20.0588 18.1206 20.0494 18.1206H19.9713V18.086H20.0349C20.0413 18.086 20.0481 18.0828 20.0554 18.0764C20.0629 18.0701 20.0667 18.0605 20.0667 18.0478C20.0667 18.0347 20.0629 18.0258 20.0554 18.0212C20.0481 18.0166 20.0416 18.0143 20.0361 18.0143H19.9915V18.1929H19.9447ZM20.0736 18.0923L20.1268 18.1929H20.0754L20.0233 18.0923H20.0736ZM20.0257 18.3201C19.9937 18.3201 19.9637 18.3141 19.9358 18.3022C19.9078 18.2902 19.8833 18.2736 19.8621 18.2524C19.8409 18.2312 19.8243 18.2067 19.8124 18.1787C19.8004 18.1508 19.7944 18.1208 19.7944 18.0889C19.7944 18.0569 19.8004 18.0269 19.8124 17.999C19.8243 17.971 19.8409 17.9465 19.8621 17.9253C19.8833 17.9041 19.9078 17.8875 19.9358 17.8756C19.9637 17.8636 19.9937 17.8576 20.0257 17.8576C20.0576 17.8576 20.0876 17.8636 20.1155 17.8756C20.1435 17.8875 20.168 17.9041 20.1892 17.9253C20.2104 17.9465 20.227 17.971 20.239 17.999C20.2509 18.0269 20.2569 18.0569 20.2569 18.0889C20.2569 18.1208 20.2509 18.1508 20.239 18.1787C20.227 18.2067 20.2104 18.2312 20.1892 18.2524C20.168 18.2736 20.1435 18.2902 20.1155 18.3022C20.0876 18.3141 20.0576 18.3201 20.0257 18.3201ZM20.0257 18.2646C20.058 18.2646 20.0875 18.2567 20.1141 18.2409C20.1407 18.2251 20.1619 18.2039 20.1777 18.1773C20.1935 18.1507 20.2014 18.1212 20.2014 18.0889C20.2014 18.0565 20.1935 18.027 20.1777 18.0004C20.1619 17.9738 20.1407 17.9526 20.1141 17.9368C20.0875 17.921 20.058 17.9131 20.0257 17.9131C19.9933 17.9131 19.9638 17.921 19.9372 17.9368C19.9106 17.9526 19.8894 17.9738 19.8736 18.0004C19.8578 18.027 19.8499 18.0565 19.8499 18.0889C19.8499 18.1212 19.8578 18.1507 19.8736 18.1773C19.8894 18.2039 19.9106 18.2251 19.9372 18.2409C19.9638 18.2567 19.9933 18.2646 20.0257 18.2646Z" fill="#2C2255"/>
<defs>
<linearGradient id="paint0_linear_66_187" x1="12.9041" y1="17.8899" x2="12.9041" y2="5.92499" gradientUnits="userSpaceOnUse">
<stop offset="0.3033" stop-color="#473788"/>
<stop offset="0.872" stop-color="#2C2255"/>
</linearGradient>
<linearGradient id="paint1_linear_66_187" x1="12.9041" y1="17.8902" x2="12.9041" y2="5.92524" gradientUnits="userSpaceOnUse">
<stop offset="0.3033" stop-color="#473788"/>
<stop offset="0.872" stop-color="#2C2255"/>
</linearGradient>
<linearGradient id="paint2_linear_66_187" x1="12.9039" y1="17.8898" x2="12.9039" y2="5.92551" gradientUnits="userSpaceOnUse">
<stop offset="0.3033" stop-color="#473788"/>
<stop offset="0.8631" stop-color="#2C2255"/>
</linearGradient>
</defs>
</svg>
