<svg width="24" height="24" viewBox="0 0 24 24" fill="none" xmlns="http://www.w3.org/2000/svg">
<g clip-path="url(#clip0_66_1526)">
<path d="M22.974 10.983L13.0145 1.02339C12.9975 1.00639 12.9801 0.989768 12.9623 0.973643C12.9445 0.957518 12.9263 0.941768 12.9077 0.926518C12.8891 0.911268 12.8702 0.896518 12.8509 0.882143C12.8315 0.86783 12.8119 0.854018 12.7919 0.840643C12.7719 0.827268 12.7516 0.814393 12.731 0.80208C12.7104 0.789705 12.6895 0.77783 12.6683 0.766518C12.6471 0.755143 12.6256 0.74433 12.6039 0.73408C12.5822 0.723768 12.5602 0.71408 12.538 0.70483C12.5157 0.695643 12.4934 0.687018 12.4707 0.678893C12.448 0.670768 12.4252 0.663268 12.4022 0.656268C12.3792 0.649268 12.3561 0.642893 12.3327 0.637018C12.3094 0.631205 12.286 0.625955 12.2624 0.621205C12.2389 0.616518 12.2152 0.612455 12.1914 0.608893C12.1676 0.605393 12.1437 0.602455 12.1198 0.60008C12.0959 0.597705 12.0719 0.595955 12.0479 0.594768C12.0239 0.59358 11.9999 0.593018 11.9758 0.593018C11.9518 0.593018 11.9277 0.59358 11.9037 0.594768C11.8797 0.595955 11.8558 0.597705 11.8319 0.60008C11.8079 0.602455 11.784 0.605393 11.7603 0.608893C11.7365 0.612455 11.7128 0.616518 11.6892 0.621205C11.6657 0.625955 11.6422 0.631205 11.6189 0.637018C11.5955 0.642893 11.5724 0.649268 11.5494 0.656268C11.5264 0.663268 11.5036 0.670768 11.4809 0.678893C11.4583 0.687018 11.4359 0.695643 11.4137 0.70483C11.3915 0.71408 11.3695 0.723768 11.3478 0.73408C11.326 0.74433 11.3045 0.755143 11.2834 0.766518C11.2622 0.77783 11.2412 0.789705 11.2207 0.80208C11.2 0.814393 11.1797 0.827268 11.1597 0.840643C11.1397 0.854018 11.1201 0.86783 11.1008 0.882143C11.0815 0.896518 11.0625 0.911268 11.044 0.926518C11.0254 0.941768 11.0072 0.957518 10.9894 0.973643C10.9715 0.989768 10.9542 1.00639 10.9372 1.02339L8.86986 3.0907L11.4932 5.71408C12.1034 5.5002 12.802 5.64639 13.2882 6.13258C13.317 6.16133 13.3447 6.19114 13.3714 6.22189C13.398 6.25258 13.4236 6.28427 13.448 6.31677C13.4725 6.34933 13.4958 6.38264 13.5179 6.41683C13.54 6.45095 13.561 6.48583 13.5807 6.52145C13.6004 6.55708 13.6188 6.59333 13.6359 6.63027C13.6531 6.66714 13.6689 6.70464 13.6835 6.74264C13.698 6.78064 13.7112 6.81914 13.723 6.85808C13.7349 6.89702 13.7454 6.93627 13.7545 6.97595C13.7635 7.01564 13.7713 7.05558 13.7775 7.09577C13.7839 7.13595 13.7888 7.17639 13.7922 7.21689C13.7957 7.25745 13.7978 7.29808 13.7985 7.33877C13.7991 7.37945 13.7983 7.42014 13.7961 7.46077C13.7939 7.50139 13.7903 7.54195 13.7853 7.58233C13.7802 7.6227 13.7738 7.66283 13.766 7.70277C13.7581 7.7427 13.7489 7.78233 13.7383 7.82164C13.7277 7.86095 13.7157 7.89983 13.7024 7.93827L16.231 10.4668C16.8426 10.2558 17.5484 10.392 18.0367 10.8817C18.0569 10.902 18.0767 10.9226 18.0959 10.9439C18.1151 10.9651 18.1338 10.9867 18.152 11.0088C18.1702 11.031 18.1878 11.0535 18.2048 11.0765C18.2219 11.0995 18.2384 11.1229 18.2543 11.1467C18.2702 11.1705 18.2855 11.1946 18.3002 11.2192C18.3149 11.2438 18.3291 11.2686 18.3425 11.2939C18.356 11.3191 18.3689 11.3446 18.3812 11.3705C18.3934 11.3964 18.405 11.4226 18.416 11.449C18.4269 11.4755 18.4372 11.5021 18.4469 11.5291C18.4565 11.556 18.4655 11.5832 18.4738 11.6106C18.4822 11.638 18.4898 11.6656 18.4967 11.6933C18.5037 11.7211 18.51 11.749 18.5155 11.7771C18.5212 11.8051 18.526 11.8333 18.5302 11.8616C18.5344 11.89 18.538 11.9184 18.5408 11.9468C18.5435 11.9753 18.5457 12.0039 18.5471 12.0325C18.5485 12.061 18.5492 12.0896 18.5492 12.1183C18.5492 12.1469 18.5485 12.1755 18.5471 12.2041C18.5457 12.2327 18.5436 12.2612 18.5408 12.2897C18.538 12.3182 18.5345 12.3466 18.5303 12.3749C18.5261 12.4032 18.5212 12.4314 18.5156 12.4595C18.51 12.4876 18.5038 12.5155 18.4968 12.5432C18.4899 12.571 18.4822 12.5986 18.4739 12.626C18.4656 12.6533 18.4567 12.6805 18.447 12.7075C18.4374 12.7345 18.427 12.7611 18.4161 12.7876C18.4052 12.814 18.3935 12.8401 18.3813 12.866C18.3691 12.8919 18.3562 12.9175 18.3427 12.9427C18.3292 12.968 18.3151 12.9928 18.3004 13.0174C18.2857 13.042 18.2704 13.0661 18.2545 13.09C18.2385 13.1137 18.2221 13.1371 18.205 13.1601C18.188 13.1831 18.1704 13.2056 18.1522 13.2278C18.134 13.2499 18.1154 13.2716 18.0961 13.2928C18.0769 13.314 18.0572 13.3347 18.0369 13.355C18.0167 13.3751 17.996 13.3949 17.9747 13.4141C17.9535 13.4333 17.9319 13.452 17.9097 13.4701C17.8876 13.4883 17.865 13.506 17.842 13.523C17.819 13.54 17.7957 13.5565 17.7719 13.5724C17.748 13.5883 17.7239 13.6036 17.6994 13.6183C17.6748 13.633 17.6499 13.6471 17.6246 13.6606C17.5994 13.6741 17.5739 13.687 17.5479 13.6991C17.522 13.7114 17.4959 13.723 17.4695 13.734C17.443 13.7449 17.4163 13.7552 17.3894 13.7648C17.3624 13.7745 17.3352 13.7834 17.3079 13.7917C17.2805 13.8 17.2529 13.8076 17.2251 13.8146C17.1974 13.8215 17.1694 13.8278 17.1414 13.8334C17.1133 13.839 17.085 13.8438 17.0567 13.848C17.0284 13.8522 17 13.8557 16.9715 13.8585C16.943 13.8613 16.9145 13.8634 16.8859 13.8648C16.8574 13.8661 16.8287 13.8669 16.8001 13.8668C16.7715 13.8668 16.7429 13.8661 16.7143 13.8647C16.6857 13.8633 16.6572 13.8612 16.6287 13.8583C16.6002 13.8555 16.5719 13.852 16.5435 13.8478C16.5152 13.8436 16.487 13.8387 16.4589 13.8331C16.4309 13.8275 16.403 13.8212 16.3752 13.8143C16.3474 13.8073 16.3199 13.7996 16.2925 13.7913C16.2651 13.783 16.2379 13.774 16.211 13.7643C16.184 13.7547 16.1574 13.7444 16.1309 13.7334C16.1045 13.7225 16.0783 13.7108 16.0524 13.6986C16.0265 13.6863 16.001 13.6735 15.9758 13.66C15.9505 13.6465 15.9257 13.6323 15.9011 13.6176C15.8766 13.6029 15.8524 13.5876 15.8286 13.5716C15.8049 13.5557 15.7814 13.5392 15.7585 13.5221C15.7355 13.5051 15.7129 13.4875 15.6909 13.4693C15.6687 13.4511 15.647 13.4325 15.6259 13.4132C15.6047 13.394 15.5839 13.3742 15.5637 13.354C15.0505 12.8407 14.9235 12.0851 15.183 11.4527L12.8249 9.09452V15.3001C12.9972 15.3854 13.1516 15.4956 13.2882 15.6309C13.3085 15.6511 13.3282 15.6718 13.3474 15.693C13.3666 15.7142 13.3853 15.7359 13.4034 15.758C13.4216 15.7801 13.4392 15.8026 13.4562 15.8256C13.4733 15.8486 13.4897 15.872 13.5056 15.8958C13.5215 15.9196 13.5369 15.9438 13.5515 15.9683C13.5662 15.9928 13.5804 16.0177 13.5939 16.043C13.6073 16.0682 13.6202 16.0937 13.6324 16.1196C13.6446 16.1455 13.6562 16.1716 13.6672 16.198C13.6781 16.2245 13.6884 16.2511 13.698 16.2781C13.7077 16.305 13.7167 16.3322 13.725 16.3596C13.7333 16.387 13.7409 16.4145 13.7479 16.4423C13.7548 16.47 13.761 16.4979 13.7667 16.526C13.7722 16.554 13.7771 16.5822 13.7813 16.6105C13.7855 16.6388 13.789 16.6672 13.7919 16.6956C13.7946 16.7241 13.7967 16.7526 13.7982 16.7813C13.7995 16.8098 13.8002 16.8384 13.8002 16.867C13.8002 16.8956 13.7995 16.9242 13.7982 16.9528C13.7967 16.9814 13.7946 17.0099 13.7919 17.0384C13.789 17.0668 13.7855 17.0952 13.7813 17.1235C13.7771 17.1518 13.7722 17.18 13.7667 17.2081C13.761 17.2361 13.7548 17.264 13.7479 17.2918C13.7409 17.3195 13.7333 17.3471 13.725 17.3745C13.7167 17.4018 13.7077 17.429 13.698 17.456C13.6884 17.4829 13.6781 17.5096 13.6672 17.536C13.6562 17.5625 13.6446 17.5886 13.6324 17.6145C13.6202 17.6403 13.6073 17.6658 13.5939 17.6911C13.5804 17.7163 13.5662 17.7412 13.5515 17.7658C13.5369 17.7903 13.5215 17.8145 13.5056 17.8382C13.4897 17.862 13.4733 17.8854 13.4562 17.9084C13.4392 17.9314 13.4216 17.9539 13.4034 17.976C13.3853 17.9981 13.3666 18.0198 13.3474 18.041C13.3282 18.0622 13.3085 18.0829 13.2882 18.1031C13.268 18.1234 13.2473 18.1431 13.2261 18.1623C13.2049 18.1815 13.1832 18.2002 13.1611 18.2183C13.139 18.2365 13.1164 18.2541 13.0935 18.2711C13.0705 18.2882 13.0471 18.3046 13.0233 18.3205C12.9995 18.3365 12.9754 18.3518 12.9509 18.3665C12.9263 18.3811 12.9014 18.3953 12.8762 18.4088C12.8509 18.4222 12.8254 18.4351 12.7995 18.4473C12.7737 18.4596 12.7475 18.4711 12.7211 18.4821C12.6947 18.493 12.668 18.5033 12.641 18.513C12.6141 18.5226 12.5869 18.5316 12.5595 18.5399C12.5322 18.5482 12.5046 18.5558 12.4769 18.5628C12.4491 18.5697 12.4212 18.576 12.3932 18.5816C12.3651 18.5871 12.3369 18.592 12.3086 18.5963C12.2803 18.6005 12.2519 18.604 12.2235 18.6068C12.195 18.6096 12.1665 18.6116 12.1379 18.6131C12.1093 18.6145 12.0807 18.6151 12.0521 18.6151C12.0235 18.6151 11.9949 18.6145 11.9663 18.6131C11.9377 18.6116 11.9092 18.6096 11.8807 18.6068C11.8523 18.604 11.8239 18.6005 11.7956 18.5963C11.7673 18.592 11.7391 18.5871 11.711 18.5816C11.683 18.576 11.6551 18.5697 11.6274 18.5628C11.5996 18.5558 11.572 18.5482 11.5447 18.5399C11.5173 18.5316 11.4901 18.5226 11.4632 18.513C11.4362 18.5033 11.4095 18.493 11.3831 18.4821C11.3567 18.4711 11.3305 18.4596 11.3047 18.4473C11.2788 18.4351 11.2533 18.4222 11.228 18.4088C11.2028 18.3953 11.1779 18.3811 11.1534 18.3665C11.1289 18.3518 11.1047 18.3365 11.0809 18.3205C11.0571 18.3046 11.0337 18.2882 11.0107 18.2711C10.9877 18.2541 10.9652 18.2365 10.9431 18.2183C10.921 18.2002 10.8993 18.1815 10.8781 18.1623C10.8569 18.1431 10.8362 18.1234 10.816 18.1031C10.7957 18.083 10.776 18.0622 10.7567 18.041C10.7375 18.0198 10.7188 17.9982 10.7006 17.9761C10.6825 17.954 10.6649 17.9315 10.6478 17.9085C10.6307 17.8855 10.6142 17.8621 10.5983 17.8383C10.5824 17.8146 10.567 17.7904 10.5524 17.7659C10.5376 17.7413 10.5235 17.7165 10.51 17.6912C10.4965 17.666 10.4836 17.6405 10.4714 17.6146C10.4591 17.5887 10.4475 17.5626 10.4365 17.5361C10.4256 17.5097 10.4153 17.483 10.4056 17.4561C10.396 17.4291 10.387 17.402 10.3787 17.3746C10.3704 17.3472 10.3627 17.3196 10.3557 17.2919C10.3488 17.2641 10.3425 17.2362 10.3369 17.2081C10.3314 17.1801 10.3264 17.1519 10.3222 17.1236C10.318 17.0953 10.3145 17.0669 10.3117 17.0384C10.3089 17.01 10.3068 16.9814 10.3054 16.9528C10.304 16.9243 10.3033 16.8956 10.3033 16.867C10.3033 16.8384 10.304 16.8098 10.3054 16.7812C10.3068 16.7526 10.3089 16.7241 10.3117 16.6956C10.3145 16.6671 10.318 16.6388 10.3222 16.6105C10.3264 16.5821 10.3314 16.554 10.3369 16.5259C10.3425 16.4978 10.3488 16.4699 10.3557 16.4421C10.3627 16.4144 10.3704 16.3868 10.3787 16.3595C10.387 16.3321 10.396 16.3049 10.4056 16.278C10.4153 16.251 10.4256 16.2243 10.4365 16.1979C10.4475 16.1715 10.4591 16.1453 10.4714 16.1195C10.4836 16.0936 10.4965 16.0681 10.51 16.0428C10.5235 16.0176 10.5376 15.9927 10.5524 15.9681C10.567 15.9436 10.5824 15.9195 10.5983 15.8957C10.6142 15.8719 10.6307 15.8485 10.6478 15.8256C10.6649 15.8026 10.6825 15.78 10.7006 15.758C10.7188 15.7358 10.7375 15.7142 10.7567 15.693C10.776 15.6718 10.7957 15.6511 10.816 15.6309C10.9849 15.4626 11.1724 15.3351 11.3884 15.2495V8.9862C11.1802 8.90064 10.9849 8.77445 10.816 8.60483C10.7855 8.57439 10.7562 8.54283 10.728 8.51027C10.6999 8.47764 10.673 8.44402 10.6474 8.40945C10.6217 8.37483 10.5974 8.33933 10.5744 8.30295C10.5513 8.26658 10.5297 8.22939 10.5094 8.19139C10.4891 8.15339 10.4702 8.1147 10.4529 8.07527C10.4354 8.03589 10.4195 7.99595 10.405 7.95533C10.3905 7.91477 10.3776 7.87377 10.3662 7.8322C10.3548 7.7907 10.3449 7.74877 10.3366 7.70652C10.3283 7.66427 10.3215 7.62177 10.3164 7.57902C10.3112 7.53627 10.3075 7.49339 10.3055 7.45033C10.3035 7.40733 10.3032 7.36427 10.3044 7.32127C10.3055 7.2782 10.3083 7.2352 10.3126 7.19239C10.317 7.14952 10.3229 7.10689 10.3304 7.06452C10.3379 7.02208 10.347 6.98002 10.3576 6.93827C10.3682 6.89652 10.3804 6.85527 10.3941 6.81439C10.4077 6.77358 10.4229 6.73333 10.4396 6.69358L7.85186 4.10727L1.02248 10.9295C1.00548 10.9465 0.988922 10.9639 0.972734 10.9817C0.956547 10.9995 0.940859 11.0177 0.925609 11.0363C0.910297 11.0549 0.895547 11.0738 0.881172 11.0931C0.866859 11.1125 0.852984 11.1321 0.839609 11.1521C0.826234 11.1721 0.813359 11.1924 0.800984 11.213C0.788609 11.2336 0.776797 11.2546 0.765422 11.2758C0.754109 11.297 0.743234 11.3185 0.732984 11.3402C0.722672 11.3619 0.712922 11.3839 0.703734 11.4061C0.694484 11.4283 0.685859 11.4508 0.677734 11.4734C0.669609 11.4961 0.662109 11.5189 0.655109 11.5419C0.648109 11.5649 0.641672 11.5881 0.635859 11.6114C0.629984 11.6348 0.624734 11.6582 0.620047 11.6818C0.615359 11.7054 0.611234 11.7291 0.607672 11.7529C0.604172 11.7766 0.601234 11.8005 0.598859 11.8245C0.596484 11.8484 0.594734 11.8724 0.593547 11.8964C0.592359 11.9204 0.591797 11.9445 0.591797 11.9685C0.591797 11.9926 0.592359 12.0166 0.593547 12.0406C0.594734 12.0646 0.596484 12.0886 0.598859 12.1125C0.601234 12.1365 0.604172 12.1603 0.607672 12.1841C0.611234 12.208 0.615359 12.2316 0.620047 12.2552C0.624734 12.2788 0.629984 12.3023 0.635859 12.3256C0.641672 12.3489 0.648109 12.3721 0.655109 12.3951C0.662109 12.4181 0.669609 12.441 0.677734 12.4636C0.685859 12.4862 0.694484 12.5086 0.703734 12.5309C0.712922 12.5531 0.722672 12.5751 0.732984 12.5968C0.743234 12.6186 0.754109 12.64 0.765422 12.6612C0.776797 12.6825 0.788609 12.7033 0.800984 12.724C0.813359 12.7446 0.826234 12.7649 0.839609 12.7849C0.852984 12.8049 0.866859 12.8246 0.881172 12.8439C0.895547 12.8632 0.910297 12.8821 0.925609 12.9007C0.940859 12.9193 0.956547 12.9375 0.972734 12.9553C0.988922 12.9731 1.00548 12.9905 1.02248 13.0075L10.9828 22.9664C10.9998 22.9834 11.0172 23 11.035 23.0161C11.0528 23.0323 11.071 23.048 11.0896 23.0632C11.1082 23.0785 11.1271 23.0933 11.1464 23.1076C11.1657 23.1219 11.1854 23.1358 11.2054 23.1491C11.2254 23.1625 11.2457 23.1753 11.2662 23.1877C11.2869 23.2001 11.3078 23.2119 11.329 23.2233C11.3502 23.2346 11.3717 23.2454 11.3934 23.2556C11.4151 23.266 11.4371 23.2757 11.4593 23.2849C11.4815 23.2941 11.5039 23.3028 11.5265 23.3108C11.5492 23.319 11.572 23.3265 11.595 23.3335C11.618 23.3405 11.6412 23.3469 11.6645 23.3527C11.6879 23.3586 11.7113 23.3638 11.7349 23.3685C11.7584 23.3732 11.7821 23.3773 11.8059 23.3808C11.8297 23.3844 11.8535 23.3873 11.8775 23.3897C11.9014 23.392 11.9254 23.3938 11.9494 23.395C11.9734 23.3961 11.9974 23.3968 12.0214 23.3968C12.0455 23.3968 12.0695 23.3961 12.0935 23.395C12.1175 23.3938 12.1415 23.392 12.1654 23.3897C12.1894 23.3873 12.2132 23.3844 12.237 23.3808C12.2608 23.3773 12.2845 23.3732 12.308 23.3685C12.3316 23.3638 12.355 23.3586 12.3784 23.3527C12.4017 23.3469 12.4249 23.3405 12.4479 23.3335C12.4709 23.3265 12.4937 23.319 12.5164 23.3108C12.539 23.3028 12.5614 23.2941 12.5836 23.2849C12.6058 23.2757 12.6278 23.266 12.6495 23.2556C12.6712 23.2454 12.6927 23.2346 12.7139 23.2233C12.7351 23.2119 12.756 23.2001 12.7766 23.1877C12.7972 23.1753 12.8175 23.1625 12.8375 23.1491C12.8575 23.1358 12.8772 23.1219 12.8965 23.1076C12.9158 23.0933 12.9347 23.0785 12.9533 23.0632C12.9719 23.048 12.9901 23.0323 13.0079 23.0161C13.0257 23 13.0431 22.9834 13.0601 22.9664L22.974 13.0681C22.991 13.0511 23.0077 13.0337 23.0239 13.0159C23.04 12.9981 23.0557 12.9799 23.071 12.9613C23.0862 12.9427 23.101 12.9238 23.1154 12.9045C23.1297 12.8851 23.1435 12.8655 23.1569 12.8455C23.1703 12.8255 23.1832 12.8052 23.1955 12.7846C23.2079 12.764 23.2198 12.743 23.2311 12.7218C23.2425 12.7006 23.2533 12.6791 23.2636 12.6574C23.2739 12.6356 23.2836 12.6137 23.2929 12.5915C23.302 12.5693 23.3107 12.5468 23.3188 12.5242C23.3269 12.5015 23.3345 12.4787 23.3415 12.4557C23.3485 12.4327 23.3549 12.4095 23.3607 12.3862C23.3665 12.3628 23.3719 12.3394 23.3765 12.3158C23.3812 12.2922 23.3854 12.2685 23.3889 12.2447C23.3924 12.221 23.3954 12.1971 23.3977 12.1731C23.4 12.1492 23.4019 12.1252 23.403 12.1012C23.4042 12.0772 23.4048 12.0531 23.4048 12.0291C23.4048 12.005 23.4042 11.981 23.403 11.957C23.4019 11.933 23.4 11.909 23.3977 11.885C23.3954 11.8611 23.3924 11.8373 23.3889 11.8135C23.3854 11.7896 23.3812 11.766 23.3765 11.7424C23.3719 11.7188 23.3665 11.6953 23.3607 11.672C23.3549 11.6487 23.3485 11.6255 23.3415 11.6025C23.3345 11.5795 23.3269 11.5566 23.3188 11.534C23.3107 11.5114 23.302 11.489 23.2929 11.4667C23.2836 11.4445 23.2739 11.4225 23.2636 11.4008C23.2533 11.379 23.2425 11.3576 23.2311 11.3363C23.2198 11.3151 23.2079 11.2942 23.1955 11.2736C23.1832 11.253 23.1703 11.2327 23.1569 11.2127C23.1435 11.1927 23.1297 11.173 23.1154 11.1537C23.101 11.1344 23.0862 11.1155 23.071 11.0969C23.0557 11.0783 23.04 11.0601 23.0239 11.0423C23.0077 11.0245 22.991 11.0071 22.974 10.9901" fill="#F03C2E"/>
</g>
<defs>
<clipPath id="clip0_66_1526">
<rect width="24" height="24" fill="white"/>
</clipPath>
</defs>
</svg>
