<svg width="24" height="24" viewBox="0 0 24 24" fill="none" xmlns="http://www.w3.org/2000/svg">
<path d="M12.0002 1.19971C6.03631 1.19971 1.2002 6.03497 1.2002 11.9997C1.2002 16.7716 4.29473 20.8199 8.58595 22.2479C9.12567 22.3479 9.32388 22.0137 9.32388 21.7284C9.32388 21.4709 9.3138 20.62 9.30923 19.7176C6.30456 20.3709 5.67056 18.4434 5.67056 18.4434C5.17928 17.195 4.47142 16.8631 4.47142 16.8631C3.49158 16.1928 4.54528 16.2065 4.54528 16.2065C5.62982 16.2828 6.20088 17.3195 6.20088 17.3195C7.16413 18.9706 8.7274 18.4932 9.3437 18.2174C9.4406 17.5192 9.72054 17.0429 10.0294 16.7732C7.63058 16.5 5.10881 15.574 5.10881 11.4357C5.10881 10.2566 5.53071 9.29315 6.22164 8.53684C6.10949 8.26478 5.73985 7.16635 6.32624 5.67871C6.32624 5.67871 7.23316 5.38843 9.29703 6.78578C10.1585 6.54641 11.0824 6.42647 12.0002 6.4224C12.9181 6.42647 13.8427 6.54641 14.7058 6.78578C16.7672 5.38843 17.6729 5.67871 17.6729 5.67871C18.2607 7.16635 17.8909 8.26478 17.7788 8.53684C18.4712 9.29315 18.8902 10.2566 18.8902 11.4357C18.8902 15.5838 16.3637 16.4972 13.9588 16.7645C14.3462 17.0997 14.6913 17.757 14.6913 18.7645C14.6913 20.2096 14.6788 21.3726 14.6788 21.7284C14.6788 22.0158 14.8732 22.3526 15.4207 22.2465C19.7096 20.8168 22.8002 16.77 22.8002 11.9997C22.8002 6.03497 17.9648 1.19971 12.0002 1.19971Z" fill="#19213D"/>
<path d="M5.24514 16.5846C5.22142 16.6383 5.13689 16.6544 5.06006 16.6176C4.98171 16.5824 4.93767 16.5092 4.96308 16.4553C4.98637 16.4001 5.07091 16.3847 5.14909 16.4218C5.22761 16.4569 5.27233 16.5308 5.24514 16.5846ZM5.7764 17.0586C5.7249 17.1064 5.62418 17.0842 5.55583 17.0088C5.48519 16.9335 5.47197 16.8328 5.52424 16.7843C5.57734 16.7366 5.67501 16.7589 5.74582 16.8343C5.81646 16.9104 5.83027 17.0104 5.7764 17.0586ZM6.14087 17.6651C6.07464 17.7111 5.96638 17.668 5.89955 17.5719C5.8334 17.476 5.8334 17.3608 5.90099 17.3146C5.96808 17.2685 6.07463 17.31 6.1424 17.4052C6.20847 17.5029 6.20855 17.618 6.14087 17.6651ZM6.75717 18.3676C6.69796 18.4328 6.57193 18.4153 6.4796 18.3262C6.38524 18.2391 6.3589 18.1156 6.41827 18.0503C6.47816 17.9849 6.60496 18.0033 6.69796 18.0916C6.79173 18.1785 6.82027 18.303 6.75717 18.3676ZM7.55372 18.6047C7.52771 18.6893 7.40625 18.7277 7.28394 18.6918C7.1618 18.6548 7.08184 18.5557 7.10649 18.4702C7.1319 18.3851 7.25387 18.345 7.37711 18.3835C7.49908 18.4203 7.57913 18.5187 7.55372 18.6047ZM8.46038 18.7053C8.46343 18.7944 8.35967 18.8682 8.23126 18.8698C8.10208 18.8726 7.99764 18.8006 7.99629 18.713C7.99629 18.623 8.09768 18.5498 8.22677 18.5477C8.35518 18.5452 8.46038 18.6168 8.46038 18.7053ZM9.35094 18.6711C9.36636 18.758 9.27708 18.8473 9.1496 18.871C9.02424 18.8939 8.9082 18.8403 8.89219 18.7541C8.87661 18.665 8.96758 18.5758 9.09268 18.5527C9.22042 18.5305 9.33468 18.5828 9.35094 18.6711Z" fill="#19213D"/>
</svg>
