<svg width="24" height="24" viewBox="0 0 24 24" fill="none" xmlns="http://www.w3.org/2000/svg">
<mask id="mask0_66_172" style="mask-type:luminance" maskUnits="userSpaceOnUse" x="3" y="5" width="18" height="19">
<path d="M3.8877 5.03998H20.1206V23.4396H3.8877V5.03998Z" fill="white"/>
</mask>
<g mask="url(#mask0_66_172)">
<path d="M20.1163 5.05247L18.6386 21.5981L11.9959 23.4385L5.37163 21.6007L3.89551 5.05247L20.116 5.05222H20.1166L20.1163 5.05247Z" fill="#E44D26"/>
</g>
<path d="M12.0059 22.032L17.3737 20.5449L18.6365 6.40592L12.0059 6.40573V22.032Z" fill="#F16529"/>
<path d="M9.13338 10.465H12.0061V8.43521H6.91406L6.96263 8.97984L7.46175 14.5728H12.0061V12.5436H9.31894L9.13338 10.465Z" fill="#EBEBEB"/>
<path d="M9.5913 15.5875H7.55273L7.83723 18.7745L11.9968 19.9285L12.0064 19.926V17.8143L11.9975 17.8168L9.73586 17.2061L9.5913 15.5875Z" fill="#EBEBEB"/>
<path d="M5.40527 0.555664H6.43727V1.57466H7.38121V0.555664H8.41327V3.64148H7.38127V2.60816H6.43727V3.64148H5.40527V0.555664Z" fill="white"/>
<path d="M9.76983 1.57898H8.86133V0.555664H11.711V1.57898H10.8017V3.64148H9.76989V1.57898H9.76983Z" fill="white"/>
<path d="M12.1631 0.555664H13.2389L13.9008 1.63991L14.5621 0.555664H15.6386V3.64148H14.6111V2.11198L13.9008 3.2091H13.883L13.1728 2.11198V3.64148H12.1631V0.555664Z" fill="white"/>
<path d="M16.1523 0.555664H17.1843V2.62148H18.636V3.64148H16.1523V0.555664Z" fill="white"/>
<path d="M11.999 14.5726H14.4998L14.2639 17.2048L11.999 17.8161V19.9272L16.1619 18.7744L16.1925 18.4313L16.67 13.0881L16.7196 12.5435H11.999V14.5726Z" fill="white"/>
<path d="M11.999 10.4598V10.465H16.904L16.9446 10.0086L17.0375 8.97984L17.0858 8.43521H11.999V10.4598Z" fill="white"/>
</svg>
