<svg width="24" height="24" viewBox="0 0 24 24" fill="none" xmlns="http://www.w3.org/2000/svg">
<g clip-path="url(#clip0_66_171)">
<path d="M1.65234 1.65259H22.3523V22.3526H1.65234V1.65259Z" fill="#F0D91F"/>
<path d="M22.3529 23.0429H1.65289C1.27195 23.0429 0.962891 22.7338 0.962891 22.3529V1.65289C0.962891 1.27195 1.27195 0.962891 1.65289 0.962891H22.3529C22.7338 0.962891 23.0429 1.27195 23.0429 1.65289V22.3529C23.0429 22.7338 22.7338 23.0429 22.3529 23.0429ZM2.34289 21.6629H21.6629V2.34289H2.34289V21.6629Z" fill="black"/>
<path d="M9.7024 21.2028C8.2874 21.2028 7.05646 20.1981 6.77309 18.8144C6.73259 18.6167 6.7124 18.4152 6.7124 18.2128C6.7124 17.8319 7.02146 17.5228 7.4024 17.5228C7.78328 17.5228 8.0924 17.8319 8.0924 18.2128C8.0924 18.3222 8.1034 18.4317 8.12546 18.5384C8.27728 19.2827 8.94059 19.8228 9.7024 19.8228C10.5902 19.8228 11.3124 19.1005 11.3124 18.2128V11.7728C11.3124 11.3919 11.6215 11.0828 12.0024 11.0828C12.3833 11.0828 12.6924 11.3919 12.6924 11.7728V18.2128C12.6924 19.8614 11.351 21.2028 9.7024 21.2028Z" fill="black"/>
<path d="M17.7527 21.2028C15.9771 21.2028 14.5327 19.9644 14.5327 18.4428C14.5327 18.0619 14.8418 17.7528 15.2227 17.7528C15.6036 17.7528 15.9127 18.0619 15.9127 18.4428C15.9127 19.1907 16.7554 19.8228 17.7527 19.8228C18.75 19.8228 19.5927 19.1907 19.5927 18.4428C19.5927 17.7657 18.9063 17.2137 17.5522 16.8033C15.6054 16.2118 14.5327 15.1611 14.5327 13.8428C14.5327 12.3211 15.9771 11.0828 17.7527 11.0828C19.5283 11.0828 20.9727 12.3211 20.9727 13.8428C20.9727 14.2237 20.6636 14.5328 20.2827 14.5328C19.9018 14.5328 19.5927 14.2237 19.5927 13.8428C19.5927 13.0948 18.75 12.4628 17.7527 12.4628C16.7554 12.4628 15.9127 13.0948 15.9127 13.8428C15.9127 14.7305 17.1915 15.2513 17.9533 15.4822C20.4492 16.2394 20.9727 17.5099 20.9727 18.4428C20.9727 19.9644 19.5283 21.2028 17.7527 21.2028Z" fill="black"/>
</g>
<defs>
<clipPath id="clip0_66_171">
<rect width="24" height="24" fill="white"/>
</clipPath>
</defs>
</svg>
