<svg width="24" height="24" viewBox="0 0 24 24" fill="none" xmlns="http://www.w3.org/2000/svg">
<path d="M9.97929 12.6928C9.97929 12.6928 9.37536 13.0603 10.3994 13.1653C11.6334 13.3228 12.2898 13.2966 13.655 13.0341C13.655 13.0341 14.0226 13.2703 14.5215 13.4541C11.4496 14.7667 7.56361 13.3753 9.97936 12.6928H9.97929ZM9.58548 10.9864C9.58548 10.9864 8.92911 11.4851 9.95304 11.5903C11.2921 11.7215 12.3424 11.7477 14.1539 11.3802C14.1539 11.3802 14.3902 11.6427 14.784 11.7739C11.082 12.8766 6.93342 11.8789 9.58536 10.9864L9.58548 10.9864ZM16.8322 13.9788C16.8322 13.9788 17.2785 14.3463 16.3333 14.6351C14.5741 15.1602 8.95561 15.3177 7.38004 14.6351C6.82867 14.3989 7.87892 14.0576 8.22017 14.0051C8.56148 13.9263 8.74529 13.9263 8.74529 13.9263C8.14148 13.5063 4.72817 14.7926 7.01242 15.1602C13.2874 16.184 18.4598 14.7139 16.8321 13.9788L16.8322 13.9788ZM10.2683 9.201C10.2683 9.201 7.40648 9.8835 9.24436 10.1198C10.032 10.2248 11.5811 10.1986 13.0252 10.0935C14.2066 9.9885 15.3882 9.77844 15.3882 9.77844C15.3882 9.77844 14.9681 9.96219 14.6792 10.1459C11.7649 10.9073 6.17261 10.5659 7.77398 9.77844C9.13923 9.12213 10.2682 9.20088 10.2682 9.20088L10.2683 9.201ZM15.3881 12.0624C18.3287 10.5398 16.9634 9.06975 16.0182 9.2535C15.7819 9.30594 15.6769 9.35844 15.6769 9.35844C15.6769 9.35844 15.7557 9.20094 15.9394 9.14844C17.8035 8.49213 19.2739 11.1173 15.3356 12.1411C15.3356 12.1411 15.3619 12.1148 15.3881 12.0624V12.0624ZM10.557 16.2103C13.3926 16.394 17.7243 16.1053 17.83 14.7664C17.83 14.7664 17.62 15.2914 15.4933 15.6852C13.0778 16.1315 10.0847 16.0789 8.32604 15.7902C8.32604 15.7902 8.69361 16.1053 10.5577 16.2102L10.557 16.2103Z" fill="#4E7896"/>
<path d="M13.6019 0.537598C13.6019 0.537598 15.2298 2.19141 12.0529 4.68535C9.50612 6.70678 11.4752 7.86191 12.0529 9.17447C10.5563 7.8356 9.4798 6.65428 10.215 5.55172C11.2916 3.9241 14.2587 3.13703 13.6021 0.537598H13.6019ZM12.7623 8.07203C13.5237 8.93835 12.5522 9.72597 12.5522 9.72597C12.5522 9.72597 14.4951 8.72841 13.6024 7.49453C12.7885 6.31322 12.1584 5.73572 15.5716 3.76728C15.5716 3.76728 10.1892 5.10616 12.7622 8.0726L12.7623 8.07203ZM10.819 22.169V19.5963C10.819 18.9399 10.4514 18.4937 9.53249 18.4937C9.00737 18.4937 8.56105 18.6249 8.16718 18.7819L8.29849 19.2545C8.5868 19.1495 8.95487 19.0445 9.34874 19.0445C9.84762 19.0445 10.0839 19.2545 10.0839 19.6745V20.0158H9.82137C8.56105 20.0158 7.98343 20.4883 7.98343 21.2496C7.98343 21.8797 8.37724 22.2472 9.08618 22.2472C9.53255 22.2472 9.87387 22.0372 10.189 21.7747L10.2415 22.1684H10.8191L10.819 22.169ZM10.0838 21.3289C9.8213 21.5652 9.53249 21.6965 9.26987 21.6965C8.92855 21.6965 8.71855 21.4864 8.71855 21.1189C8.71855 20.7513 8.92862 20.4888 9.76874 20.4888H10.0839V21.3283L10.0838 21.3289ZM13.2871 22.169H12.3681L11.2655 18.5724H12.0532L12.7358 20.7776L12.8933 21.4338C13.2346 20.4888 13.4972 19.5175 13.6022 18.5724H14.3899C14.1798 19.7538 13.8122 21.0401 13.2872 22.169H13.2871ZM17.5404 22.169V19.5963C17.5404 18.9399 17.1728 18.4937 16.2539 18.4937C15.7287 18.4937 15.2824 18.6249 14.8886 18.7819L14.9936 19.2545C15.3087 19.1495 15.6762 19.0445 16.0701 19.0445C16.569 19.0445 16.8052 19.2545 16.8052 19.6745V20.0158H16.5427C15.2825 20.0158 14.7049 20.4883 14.7049 21.2496C14.7049 21.8797 15.0724 22.2472 15.7813 22.2472C16.2539 22.2472 16.5952 22.0372 16.9102 21.7747L16.9627 22.1684H17.5404V22.169ZM16.8052 21.3289C16.5427 21.5652 16.2539 21.6965 15.9913 21.6965C15.65 21.6965 15.44 21.4864 15.44 21.1189C15.44 20.7513 15.6501 20.4888 16.4902 20.4888H16.8053V21.3283L16.8052 21.3289ZM7.16968 22.7728C6.95962 23.0879 6.64455 23.324 6.25068 23.4553L5.90918 23.0356C6.17168 22.8781 6.4343 22.6418 6.5393 22.4317C6.6443 22.248 6.67062 21.9854 6.67062 21.3817V17.2863H7.4583V21.3292C7.4583 22.143 7.37955 22.458 7.16999 22.7731L7.16968 22.7728Z" fill="#F58219"/>
</svg>
