<svg width="24" height="24" viewBox="0 0 24 24" fill="none" xmlns="http://www.w3.org/2000/svg">
<path d="M11.061 1.11201C11.6184 0.796319 12.3291 0.794944 12.8726 1.11201L21.1948 5.80369C21.7152 6.09638 22.0636 6.67682 22.0587 7.27682V16.6839C22.0622 17.3089 21.6797 17.9019 21.1306 18.189L12.8531 22.8591C12.8179 22.8786 12.7821 22.8968 12.7457 22.9139C12.7093 22.9309 12.6724 22.9468 12.6349 22.9614C12.5974 22.976 12.5595 22.9894 12.5212 23.0014C12.4828 23.0135 12.4441 23.0243 12.405 23.0338C12.3659 23.0433 12.3266 23.0515 12.287 23.0584C12.2474 23.0653 12.2076 23.0709 12.1676 23.0751C12.1276 23.0793 12.0875 23.0822 12.0473 23.0838C12.0072 23.0853 11.967 23.0856 11.9268 23.0844C11.8866 23.0833 11.8465 23.0809 11.8064 23.0771C11.7664 23.0733 11.7266 23.0682 11.6869 23.0618C11.6472 23.0553 11.6078 23.0476 11.5686 23.0385C11.5294 23.0294 11.4906 23.0191 11.4521 23.0074C11.4136 22.9958 11.3755 22.9829 11.3379 22.9687C11.3003 22.9545 11.2632 22.9391 11.2266 22.9224C11.1899 22.9058 11.1539 22.8879 11.1186 22.8689C11.0831 22.8498 11.0484 22.8296 11.0143 22.8083L8.53038 21.3728C8.36106 21.2718 8.17088 21.1916 8.051 21.0279C8.15694 20.8858 8.34506 20.8676 8.49831 20.8049C8.84394 20.6948 9.16025 20.5262 9.478 20.3478C9.55813 20.2921 9.65638 20.3129 9.733 20.3631L11.8511 21.5881C12.0024 21.6753 12.1556 21.5603 12.2853 21.4871L20.4129 16.8999C20.5133 16.8511 20.569 16.7452 20.5607 16.6351V7.31857C20.5718 7.19319 20.5001 7.07888 20.3865 7.02801L12.1299 2.37813C12.118 2.36994 12.1056 2.36269 12.0928 2.35638C12.0798 2.35007 12.0665 2.34476 12.0528 2.34044C12.0391 2.33619 12.0251 2.33294 12.0109 2.33076C11.9966 2.32857 11.9824 2.32744 11.9679 2.32738C11.9536 2.32738 11.9393 2.32844 11.9251 2.33057C11.9108 2.33269 11.8969 2.33588 11.8831 2.34013C11.8694 2.34432 11.856 2.34957 11.8431 2.35588C11.8301 2.36213 11.8178 2.36932 11.8059 2.37744L3.56106 7.03707C3.44963 7.08794 3.37294 7.20082 3.38688 7.32626V16.6428C3.37713 16.7529 3.43569 16.8567 3.53669 16.9041L5.73988 18.1479C6.15375 18.3709 6.66169 18.4963 7.11738 18.3326C7.14213 18.3233 7.16644 18.313 7.19044 18.3018C7.21438 18.2906 7.23788 18.2786 7.26094 18.2656C7.284 18.2526 7.30656 18.2388 7.32856 18.2242C7.35056 18.2095 7.37194 18.194 7.39281 18.1777C7.41363 18.1614 7.43381 18.1444 7.45331 18.1265C7.47288 18.1087 7.49169 18.0901 7.50981 18.0709C7.52794 18.0516 7.54531 18.0317 7.56194 18.0111C7.57856 17.9906 7.59438 17.9694 7.60938 17.9476C7.62438 17.9258 7.6385 17.9035 7.65181 17.8807C7.66513 17.8578 7.67756 17.8345 7.68913 17.8107C7.70069 17.7869 7.71131 17.7627 7.721 17.7381C7.73069 17.7135 7.73944 17.6886 7.74725 17.6633C7.75506 17.638 7.76194 17.6125 7.76781 17.5867C7.77369 17.5609 7.77856 17.5349 7.78244 17.5088C7.78638 17.4826 7.78925 17.4564 7.79119 17.43C7.79313 17.4036 7.794 17.3772 7.79394 17.3508L7.796 8.09001C7.78625 7.95269 7.91581 7.83913 8.04894 7.85307H9.108C9.24738 7.84957 9.35675 7.99732 9.33794 8.13526L9.33581 17.4546C9.33656 18.2824 8.9965 19.1827 8.23075 19.5889C7.28738 20.0767 6.121 19.9743 5.18869 19.5053L2.81975 18.1953C2.26231 17.9166 1.88819 17.3145 1.89163 16.6902V7.28307C1.89194 7.24507 1.8935 7.20707 1.89631 7.16919C1.89913 7.13132 1.90319 7.09351 1.9085 7.05588C1.91381 7.01826 1.92038 6.98082 1.92819 6.94363C1.936 6.90645 1.94506 6.86957 1.95531 6.83294C1.96563 6.79638 1.97706 6.76013 1.98975 6.72432C2.00244 6.68851 2.01625 6.65313 2.03131 6.6182C2.04631 6.58332 2.0625 6.54894 2.07981 6.51507C2.09713 6.48126 2.11556 6.44807 2.13506 6.41544C2.15456 6.38282 2.17519 6.35088 2.19681 6.31963C2.2185 6.28844 2.24113 6.25795 2.26481 6.22819C2.2885 6.19844 2.31313 6.16957 2.33875 6.14144C2.36431 6.11338 2.39081 6.08613 2.41825 6.05982C2.44563 6.03351 2.47388 6.00813 2.503 5.98363C2.53206 5.95919 2.56194 5.93576 2.59263 5.91326C2.62325 5.89082 2.65463 5.86938 2.68675 5.84901C2.71881 5.82863 2.7515 5.80938 2.78488 5.79119L11.061 1.11201ZM13.4607 7.63288C14.664 7.56319 15.9523 7.58688 17.0351 8.17988C17.8733 8.63419 18.338 9.58744 18.3533 10.5198C18.3296 10.6453 18.1986 10.7149 18.0788 10.7059C17.7304 10.7051 17.3806 10.7108 17.0309 10.7038C16.8824 10.7093 16.7968 10.5728 16.7779 10.4418C16.6776 9.99582 16.4344 9.55469 16.015 9.33938C15.3712 9.01676 14.6243 9.03276 13.9219 9.03976C13.4091 9.06763 12.858 9.11151 12.4239 9.41257C12.0894 9.64113 11.9891 10.1094 12.1083 10.4731C12.2198 10.74 12.5284 10.8257 12.7799 10.9051C14.2306 11.2842 15.7669 11.2536 17.1904 11.7462C17.7792 11.9497 18.3554 12.3455 18.5575 12.9622C18.8209 13.7886 18.7059 14.7767 18.1185 15.4401C17.6419 15.9864 16.9479 16.2763 16.2547 16.4449C15.3329 16.6504 14.3769 16.6553 13.4412 16.5633C12.5611 16.463 11.6456 16.2316 10.9663 15.6324C10.3852 15.1279 10.1023 14.3419 10.1301 13.5838C10.1371 13.4555 10.2646 13.3663 10.3879 13.3768H11.4331C11.5739 13.367 11.6769 13.4883 11.6839 13.6206C11.7488 14.0388 11.9083 14.4917 12.2789 14.7356C12.9938 15.1969 13.8906 15.1648 14.7086 15.1781C15.3865 15.1481 16.1474 15.139 16.7013 14.6903C16.9939 14.4346 17.0796 14.0074 17.0009 13.6394C16.9152 13.3287 16.5829 13.1844 16.3042 13.082C14.8723 12.6291 13.3186 12.7935 11.9006 12.2807C11.3251 12.0772 10.7684 11.6926 10.5475 11.1009C10.2389 10.2648 10.3803 9.22857 11.0304 8.58751C11.6574 7.94994 12.5772 7.70394 13.4481 7.61613L13.4607 7.63288Z" fill="#8CC84B"/>
</svg>
