<svg width="24" height="24" viewBox="0 0 24 24" fill="none" xmlns="http://www.w3.org/2000/svg">
<g clip-path="url(#clip0_66_179)">
<path d="M12.2891 0.981977C11.3873 0.984852 10.7621 1.06429 10.0064 1.19473C7.77486 1.58316 7.3683 2.39898 7.3683 3.90235V6.20004H12.5877V7.35966H4.64724C3.11849 7.35966 1.78055 8.07973 1.35661 9.80579C0.877615 11.7869 0.856115 13.0277 1.35661 15.0964C1.73649 16.6392 2.57336 17.7959 4.10261 17.7959H6.20899V14.8366C6.20899 13.117 7.76674 11.4182 9.5518 11.4182H13.7482C15.2114 11.4182 16.6479 10.3386 16.6479 8.88041V3.90235C16.6479 2.48823 15.6278 1.43073 14.2017 1.1936C14.2371 1.1901 13.1834 0.978477 12.2891 0.981977ZM9.39868 3.3011C9.8748 3.3011 10.2686 3.6936 10.2686 4.17198C10.2686 4.65491 9.8748 5.04048 9.39868 5.04048C8.91324 5.04048 8.52874 4.65548 8.52874 4.17198C8.52874 3.69535 8.91324 3.3011 9.39868 3.3011Z" fill="#0277BD"/>
<path d="M11.727 23.0139C12.6288 23.011 13.254 22.9315 14.0097 22.8011C16.2413 22.4126 16.6478 21.5969 16.6478 20.0935V17.7958H11.4284V16.6362H19.3695C20.8982 16.6362 22.2361 15.9161 22.66 14.1901C23.1391 12.2089 23.1605 10.9681 22.66 8.89945C22.2796 7.35664 21.4428 6.19995 19.9135 6.19995H17.8071V9.1592C17.8071 10.8789 16.2494 12.5776 14.4644 12.5776H10.2679C8.80466 12.5776 7.36816 13.6572 7.36816 15.1154V20.0935C7.36816 21.5076 8.38829 22.5651 9.81435 22.8023C9.77898 22.8057 10.8327 23.0173 11.727 23.0139ZM14.618 20.6947C14.1419 20.6947 13.7481 20.3022 13.7481 19.8239C13.7481 19.3409 14.1419 18.9553 14.618 18.9553C15.1034 18.9553 15.4879 19.3403 15.4879 19.8239C15.4879 20.3005 15.1029 20.6947 14.618 20.6947Z" fill="#FFC107"/>
</g>
<defs>
<clipPath id="clip0_66_179">
<rect width="24" height="24" fill="white"/>
</clipPath>
</defs>
</svg>
