<svg width="24" height="24" viewBox="0 0 24 24" fill="none" xmlns="http://www.w3.org/2000/svg">
<path d="M12.0776 23.0494L21.0038 17.895L17.5824 15.9163L14.0844 17.937C14.0547 17.9534 14.0212 17.9618 13.9872 17.9616C13.9532 17.9613 13.9199 17.9523 13.8904 17.9355C13.8609 17.9183 13.8363 17.8938 13.8192 17.8642C13.802 17.8347 13.7927 17.8013 13.7923 17.7671V12.9683C13.7923 12.8269 13.8654 12.6988 13.9879 12.6285L18.1444 10.2281C18.174 10.2112 18.2075 10.2025 18.2416 10.2027C18.2757 10.203 18.3091 10.2123 18.3384 10.2296C18.3992 10.2634 18.4373 10.3271 18.4378 10.3965V14.4358L21.8614 16.4134V6.10501L12.0776 11.7525V23.0494Z" fill="black"/>
<path d="M10.0759 17.9392L6.57638 15.9161L3.15244 17.8946L12.0776 23.0494V11.7525L2.29688 6.1048V16.4128L5.7195 14.436V10.3969C5.721 10.3275 5.75831 10.2637 5.81831 10.23C5.84782 10.2126 5.88138 10.2034 5.91561 10.2031C5.94984 10.2028 5.98354 10.2116 6.01331 10.2285L10.1719 12.6285C10.2314 12.663 10.2808 12.7126 10.3151 12.7723C10.3494 12.832 10.3675 12.8996 10.3674 12.9684V17.768C10.3667 17.8374 10.3299 17.9012 10.2699 17.9372C10.2107 17.9724 10.1368 17.9728 10.0759 17.9392Z" fill="#4D4D4D"/>
<path d="M12.9352 0.950623V4.90425L16.4334 6.92362C16.4934 6.95868 16.5292 7.02318 16.5292 7.0935C16.5292 7.16306 16.4927 7.22681 16.4334 7.26187L12.2754 9.66375C12.2157 9.6976 12.1482 9.71539 12.0795 9.71539C12.0108 9.71539 11.9433 9.6976 11.8836 9.66375L7.72687 7.26187C7.69735 7.24481 7.67286 7.22025 7.65587 7.19069C7.63889 7.16112 7.63 7.1276 7.63012 7.0935C7.62983 7.05916 7.63863 7.02537 7.65562 6.99553C7.67261 6.9657 7.6972 6.94089 7.72687 6.92362L11.2241 4.90425V0.950623L2.29688 6.105L12.0776 11.7525L21.8606 6.105L12.9352 0.950623Z" fill="#808080"/>
</svg>
